<svg width="40" height="90" viewBox="0 0 40 90" fill="none" xmlns="http://www.w3.org/2000/svg">
<circle cx="20" cy="20" r="19" stroke="white" stroke-width="2"/>
<path d="M21 9C21 8.44772 20.5523 8 20 8C19.4477 8 19 8.44772 19 9L21 9ZM19.2929 89.7071C19.6834 90.0976 20.3166 90.0976 20.7071 89.7071L27.0711 83.3431C27.4616 82.9526 27.4616 82.3195 27.0711 81.9289C26.6805 81.5384 26.0474 81.5384 25.6569 81.9289L20 87.5858L14.3431 81.9289C13.9526 81.5384 13.3195 81.5384 12.9289 81.9289C12.5384 82.3195 12.5384 82.9526 12.9289 83.3431L19.2929 89.7071ZM19 9L19 89L21 89L21 9L19 9Z" fill="white"/>
</svg>
