<svg width="24" height="24" viewBox="0 0 24 24" fill="none" xmlns="http://www.w3.org/2000/svg">
<path fill-rule="evenodd" clip-rule="evenodd" d="M5.28003 12V6.23999H8.16003C9.75065 6.23999 11.04 7.52941 11.04 9.11999C11.04 10.7106 9.75065 12 8.16003 12C9.75065 12 11.04 13.2894 11.04 14.88C11.04 16.4706 9.75065 17.76 8.16003 17.76H5.28003V12Z" stroke="black" stroke-width="1.5" stroke-linecap="round" stroke-linejoin="round"/>
<path fill-rule="evenodd" clip-rule="evenodd" d="M18.72 14.88C18.72 13.2894 17.4306 12 15.84 12C14.2493 12 12.96 13.2894 12.96 14.88H18.72Z" stroke="black" stroke-width="1.5" stroke-linecap="round" stroke-linejoin="round"/>
<path d="M5.28006 11.28C4.88242 11.28 4.56006 11.6024 4.56006 12C4.56006 12.3976 4.88242 12.72 5.28006 12.72V11.28ZM8.16006 12.72C8.5577 12.72 8.88006 12.3976 8.88006 12C8.88006 11.6024 8.5577 11.28 8.16006 11.28V12.72ZM13.6801 14.88C13.6801 14.4824 13.3577 14.16 12.9601 14.16C12.5624 14.16 12.2401 14.4824 12.2401 14.88H13.6801ZM18.5233 17.28C18.7884 16.9836 18.763 16.5285 18.4666 16.2633C18.1703 15.9982 17.7151 16.0236 17.45 16.32L18.5233 17.28ZM17.7601 10.8C18.1577 10.8 18.4801 10.4776 18.4801 10.08C18.4801 9.68234 18.1577 9.35999 17.7601 9.35999V10.8ZM13.9201 9.35999C13.5224 9.35999 13.2001 9.68234 13.2001 10.08C13.2001 10.4776 13.5224 10.8 13.9201 10.8V9.35999ZM5.28006 12.72H8.16006V11.28H5.28006V12.72ZM12.2401 14.88C12.2401 16.3726 13.1612 17.7104 14.5555 18.243L15.0693 16.8977C14.2327 16.5781 13.6801 15.7755 13.6801 14.88H12.2401ZM14.5555 18.243C15.9498 18.7755 17.5281 18.3924 18.5233 17.28L17.45 16.32C16.853 16.9875 15.9059 17.2173 15.0693 16.8977L14.5555 18.243ZM17.7601 9.35999H13.9201V10.8H17.7601V9.35999Z" fill="black"/>
</svg>
