<svg width="800" height="800" viewBox="0 0 800 800" fill="none" xmlns="http://www.w3.org/2000/svg">
<g clip-path="url(#clip0_162_187)">
<path d="M800 711.111C800 734.686 790.635 757.295 773.965 773.965C757.295 790.635 734.686 800 711.111 800H88.8889C65.3141 800 42.7049 790.635 26.035 773.965C9.36505 757.295 0 734.686 0 711.111V88.8889C0 65.3141 9.36505 42.7049 26.035 26.035C42.7049 9.36505 65.3141 0 88.8889 0L711.111 0C734.686 0 757.295 9.36505 773.965 26.035C790.635 42.7049 800 65.3141 800 88.8889V711.111Z" fill="#00BD95"/>
<path d="M239.489 207.6C239.489 174.533 258.089 153.867 292.556 153.867H413.823C519.934 153.867 585.378 201.422 585.378 309.578C585.378 385.378 528.2 428.778 457.911 439.8L575.067 565.222C584.689 575.556 588.823 585.889 588.823 595.533C588.823 622.4 567.467 648.578 537.178 648.578C524.756 648.578 508.223 643.756 497.2 630.667L344.245 445.311H342.867V594.822C342.867 629.289 320.823 648.556 291.178 648.556C261.534 648.556 239.489 629.289 239.489 594.822V207.6ZM342.845 370.889H413.8C451.689 370.889 477.889 348.156 477.889 309.578C477.889 270.311 451.667 248.933 413.8 248.933H342.845V370.889Z" fill="#040303"/>
</g>
<defs>
<clipPath id="clip0_162_187">
<rect width="800" height="800" fill="white"/>
</clipPath>
</defs>
</svg>
